<svg xmlns="http://www.w3.org/2000/svg" viewBox="0 0 32 32" role="img" aria-label="Election Calendar">
  <rect width="32" height="32" rx="7" fill="#0f1219"/>
  <circle cx="16" cy="16" r="11.5" fill="#171c27" stroke="#5b9fd4" stroke-width="1.25"/>
  <ellipse cx="16" cy="16" rx="5.75" ry="11.5" fill="none" stroke="#5b9fd4" stroke-width="0.9" opacity="0.55"/>
  <ellipse cx="16" cy="16" rx="11.5" ry="4.25" fill="none" stroke="#5b9fd4" stroke-width="0.9" opacity="0.4"/>
  <ellipse cx="16" cy="16" rx="11.5" ry="8.5" fill="none" stroke="#5b9fd4" stroke-width="0.75" opacity="0.25"/>
  <path fill="#5b9fd4" opacity="0.9" d="M9.5 12.2c1.8-1.1 4.2-1.6 6.5-1.3 1.4.2 2.8.8 3.8 1.7.8.7 1.4 1.6 1.8 2.6-1.5.3-3 .1-4.4-.5-1.5-.7-2.8-1.8-3.8-3.1-.4-.5-.8-1-.9-1.4z"/>
  <path fill="#5b9fd4" opacity="0.75" d="M18.8 19.4c1.6.9 3.5 1.3 5.4 1.1 1-.1 2-.5 2.8-1.1-.9 1.5-2.4 2.6-4.1 3.1-1.8.5-3.7.2-5.3-.7-.5-.3-1-.7-1.4-1.1.7-.5 1.5-.9 2.3-1.3.1.4.2.7.3 1z"/>
  <path fill="#5b9fd4" opacity="0.6" d="M7.8 18.6c.5 1.2 1.3 2.3 2.4 3 1 .6 2.2.9 3.4.8-.7.8-1.7 1.4-2.8 1.6-1.5.3-3.1-.1-4.3-1.1-.7-.6-1.2-1.4-1.5-2.3.5-.4 1.1-.7 1.7-1 .1.3.2.7.3 1z"/>
</svg>
